<?xml version="1.0" encoding="iso-8859-1"?>
<!-- Generator: Adobe Illustrator 19.1.0, SVG Export Plug-In . SVG Version: 6.00 Build 0)  -->
<svg version="1.1" id="Capa_1" xmlns="http://www.w3.org/2000/svg" xmlns:xlink="http://www.w3.org/1999/xlink" x="0px" y="0px"
	 viewBox="0 0 633.136 633.136" style="enable-background:new 0 0 633.136 633.136;" xml:space="preserve">
<g>
	<g>
		<g>
			<path style="fill:#FF0000;" d="M411.158,185.741c0,12.965-10.493,23.468-23.487,23.468c-12.936,0-23.419-10.503-23.419-23.468
				c0-12.985,10.483-23.468,23.419-23.468C400.655,162.273,411.158,172.766,411.158,185.741z M516.041,199.448
				c0,110.188-199.487,433.688-199.487,433.688s-199.458-323.5-199.458-433.688C117.095,89.299,206.414,0,316.553,0
				C426.702,0,516.05,89.299,516.041,199.448z M428.412,305.493H204.714c28.158,29.643,67.824,48.274,111.839,48.274
				C360.597,353.778,400.293,335.146,428.412,305.493z M439.306,292.665c19.716-25.92,31.558-58.162,31.558-93.227
				c0-85.088-69.192-154.339-154.32-154.339c-85.098,0-154.339,69.251-154.339,154.349c0,35.065,11.92,67.307,31.655,93.237h130.344
				l1.593-4.817c1.876-6.468,6.009-28.031,6.927-34.811c1.798-13.62,1.524-27.62-1.319-41.406
				c-2.843-13.766-8.373-27.308-16.248-39.784c-4.455-7.113-9.809-13.825-15.662-20.195c-3.976,2.56-9.438,6.321-11.49,7.875
				c-5.54,4.221-10.464,9.379-14.421,15.359c-3.908,5.999-6.829,12.838-8.481,20.166c-1.651,7.328-2.042,15.075-1.466,22.882
				c-2.374-7.445-3.889-15.329-3.967-23.448c-0.147-8.099,1.163-16.453,4.025-24.416c2.853-7.963,7.201-15.505,12.643-22.227
				l0.899-1.026c-3.634-0.723-7.328-1.397-9.057-1.612c-6.937-0.909-14.069-0.791-21.084,0.684
				c-7.015,1.407-13.893,4.221-20.244,8.246c-6.36,3.986-12.154,9.204-17.254,15.095c3.605-6.927,8.099-13.522,13.756-19.355
				c5.637-5.833,12.486-10.835,20.107-14.431c7.689-3.634,16.111-5.862,24.709-6.78c4.279-0.479,8.637-0.606,13.004-0.42
				c2.198,0.078,4.397,0.283,6.595,0.557l2.11,0.293l0.948-2.706c0.782-2.091,1.641-4.113,2.589-6.106
				c1.876-3.957,3.996-7.758,6.399-11.333c4.826-7.162,10.708-13.59,17.528-18.641c6.722-5.12,14.313-8.842,22.071-11.118
				c7.816-2.316,15.759-3.205,23.546-3.166c-7.601,1.778-14.87,4.445-21.397,8.246c-6.487,3.722-12.135,8.539-16.717,14.079
				c-4.533,5.51-7.933,11.754-10.386,18.309c-0.41,1.114-1.065,3.146-1.749,5.442c3.253-0.918,6.526-1.729,9.878-2.257
				c8.52-1.378,17.235-1.426,25.559,0.059c8.344,1.466,16.258,4.465,23.224,8.578c7.025,4.133,13.082,9.34,18.378,15.075
				c-6.478-4.357-13.453-7.855-20.605-10.044c-7.171-2.189-14.558-3.058-21.709-2.609c-7.122,0.42-14.089,2.169-20.498,4.895
				c-2.794,1.153-10.601,4.963-14.577,7.132c12.594,15.232,33.297,48.343,39.511,61.64c7.132,15.046,11.548,31.587,13.317,48.45
				c0.918,8.451,1.221,17.01,0.84,25.588c-0.195,4.309-0.528,8.627-1.065,13.004l-0.195,1.055h74.537L439.306,292.665
				L439.306,292.665z"/>
		</g>
	</g>
</g>
<g>
</g>
<g>
</g>
<g>
</g>
<g>
</g>
<g>
</g>
<g>
</g>
<g>
</g>
<g>
</g>
<g>
</g>
<g>
</g>
<g>
</g>
<g>
</g>
<g>
</g>
<g>
</g>
<g>
</g>
</svg>
